<?xml version="1.0" standalone="no"?>
<!DOCTYPE svg PUBLIC "-//W3C//DTD SVG 20010904//EN"
 "http://www.w3.org/TR/2001/REC-SVG-20010904/DTD/svg10.dtd">
<svg version="1.0" xmlns="http://www.w3.org/2000/svg"
 width="500.000000pt" height="500.000000pt" viewBox="0 0 500.000000 500.000000"
 preserveAspectRatio="xMidYMid meet">

<g transform="translate(0.000000,500.000000) scale(0.100000,-0.100000)"
fill="#000000" stroke="none">
<path d="M0 2500 l0 -2500 2500 0 2500 0 0 2500 0 2500 -2500 0 -2500 0 0
-2500z m2925 1621 c277 -36 456 -115 590 -263 150 -165 220 -386 182 -573 -24
-118 -68 -196 -162 -290 -97 -98 -202 -156 -398 -219 l-131 -43 75 -18 c120
-29 298 -93 394 -143 71 -36 109 -65 176 -132 135 -134 189 -266 189 -466 0
-185 -57 -334 -178 -465 -171 -185 -397 -286 -757 -340 -55 -8 -349 -13 -948
-16 l-868 -4 3 43 3 43 110 6 c121 7 164 21 221 71 53 47 64 83 74 242 12 182
12 1985 1 2177 -11 166 -21 199 -79 251 -50 45 -96 59 -227 67 l-100 6 -3 43
-3 44 873 -5 c570 -3 904 -9 963 -16z"/>
<path d="M2200 3385 l0 -588 138 6 c230 10 362 57 478 173 107 107 149 225
148 424 -1 107 -5 136 -27 205 -47 142 -130 235 -266 297 -82 38 -176 55 -340
64 l-131 7 0 -588z"/>
<path d="M2202 2043 l3 -578 25 -45 c37 -67 108 -100 211 -100 244 0 456 119
551 310 57 113 73 185 73 325 -1 142 -17 212 -77 335 -48 100 -143 202 -225
243 -106 54 -283 86 -476 87 l-88 0 3 -577z"/>
</g>
</svg>
